<svg xmlns="http://www.w3.org/2000/svg" viewBox="0 0 256 256" role="img" aria-label="Argus portresi">
<defs>
  <radialGradient id="glow" cx="50%" cy="38%" r="65%">
    <stop offset="0" stop-color="#F8717157"/>
    <stop offset="1" stop-color="#0b1222"/>
  </radialGradient>
  <linearGradient id="govde" x1="0" y1="0" x2="0" y2="1">
    <stop offset="0" stop-color="#804953"/>
    <stop offset="1" stop-color="#392737"/>
  </linearGradient>
</defs>
<rect width="256" height="256" fill="url(#glow)"/>
<!-- doku ızgarası -->
<line x1="0" y1="32" x2="256" y2="32" stroke="#F871710f" stroke-width="1"/><line x1="0" y1="64" x2="256" y2="64" stroke="#F871710f" stroke-width="1"/><line x1="0" y1="96" x2="256" y2="96" stroke="#F871710f" stroke-width="1"/><line x1="0" y1="128" x2="256" y2="128" stroke="#F871710f" stroke-width="1"/><line x1="0" y1="160" x2="256" y2="160" stroke="#F871710f" stroke-width="1"/>
<line x1="32" y1="0" x2="32" y2="256" stroke="#F871710f" stroke-width="1"/><line x1="64" y1="0" x2="64" y2="256" stroke="#F871710f" stroke-width="1"/><line x1="96" y1="0" x2="96" y2="256" stroke="#F871710f" stroke-width="1"/><line x1="128" y1="0" x2="128" y2="256" stroke="#F871710f" stroke-width="1"/><line x1="160" y1="0" x2="160" y2="256" stroke="#F871710f" stroke-width="1"/>
<!-- halo amblem -->
<circle cx="214.0" cy="118.0" r="3" fill="#F87171" opacity=".45"/><circle cx="188.8" cy="178.8" r="3" fill="#F87171" opacity=".45"/><circle cx="128.0" cy="204.0" r="3" fill="#F87171" opacity=".45"/><circle cx="67.2" cy="178.8" r="3" fill="#F87171" opacity=".45"/><circle cx="42.0" cy="118.0" r="3" fill="#F87171" opacity=".45"/><circle cx="67.2" cy="57.2" r="3" fill="#F87171" opacity=".45"/><circle cx="128.0" cy="32.0" r="3" fill="#F87171" opacity=".45"/><circle cx="188.8" cy="57.2" r="3" fill="#F87171" opacity=".45"/>
<!-- hayalet monogram -->
<text x="128" y="86" font-family="Segoe UI, Arial, sans-serif" font-size="120" font-weight="800" text-anchor="middle" fill="#F8717124">A</text>
<!-- omuzlar -->
<path d="M36 256 C40 196 84 176 128 176 C172 176 216 196 220 256 Z" fill="url(#govde)"/>
<!-- yaka çizgisi (renk şeridi) -->
<path d="M100 256 C104 218 112 204 128 200 C144 204 152 218 156 256 Z" fill="#F87171cc"/>
<!-- baş -->
<circle cx="128" cy="118" r="52" fill="#392737"/>
<circle cx="128" cy="118" r="52" fill="none" stroke="#F871718c" stroke-width="2.5"/>
<!-- yüz hatları (minimal) -->
<circle cx="111" cy="112" r="4.5" fill="#F87171d9"/>
<circle cx="145" cy="112" r="4.5" fill="#F87171d9"/>
<path d="M112 140 Q128 148 144 140" fill="none" stroke="#F8717180" stroke-width="3" stroke-linecap="round"/>
<!-- ışık vurgusu -->
<path d="M 82 88 A 48 48 0 0 1 148 74" fill="none" stroke="#F87171a6" stroke-width="4" stroke-linecap="round"/>
</svg>
