<svg xmlns="http://www.w3.org/2000/svg" viewBox="0 0 256 256" role="img" aria-label="Atlas portresi">
<defs>
  <radialGradient id="glow" cx="50%" cy="38%" r="65%">
    <stop offset="0" stop-color="#60A5FA57"/>
    <stop offset="1" stop-color="#0b1222"/>
  </radialGradient>
  <linearGradient id="govde" x1="0" y1="0" x2="0" y2="1">
    <stop offset="0" stop-color="#3c6191"/>
    <stop offset="1" stop-color="#1e314f"/>
  </linearGradient>
</defs>
<rect width="256" height="256" fill="url(#glow)"/>
<!-- doku ızgarası -->
<line x1="0" y1="32" x2="256" y2="32" stroke="#60A5FA0f" stroke-width="1"/><line x1="0" y1="64" x2="256" y2="64" stroke="#60A5FA0f" stroke-width="1"/><line x1="0" y1="96" x2="256" y2="96" stroke="#60A5FA0f" stroke-width="1"/><line x1="0" y1="128" x2="256" y2="128" stroke="#60A5FA0f" stroke-width="1"/><line x1="0" y1="160" x2="256" y2="160" stroke="#60A5FA0f" stroke-width="1"/>
<line x1="32" y1="0" x2="32" y2="256" stroke="#60A5FA0f" stroke-width="1"/><line x1="64" y1="0" x2="64" y2="256" stroke="#60A5FA0f" stroke-width="1"/><line x1="96" y1="0" x2="96" y2="256" stroke="#60A5FA0f" stroke-width="1"/><line x1="128" y1="0" x2="128" y2="256" stroke="#60A5FA0f" stroke-width="1"/><line x1="160" y1="0" x2="160" y2="256" stroke="#60A5FA0f" stroke-width="1"/>
<!-- halo amblem -->
<circle cx="128" cy="118" r="78" fill="none" stroke="#60A5FA" stroke-width="2" opacity=".35"/><circle cx="128" cy="118" r="92" fill="none" stroke="#60A5FA" stroke-width="1.5" opacity=".25"/>
<!-- hayalet monogram -->
<text x="128" y="86" font-family="Segoe UI, Arial, sans-serif" font-size="120" font-weight="800" text-anchor="middle" fill="#60A5FA24">A</text>
<!-- omuzlar -->
<path d="M36 256 C40 196 84 176 128 176 C172 176 216 196 220 256 Z" fill="url(#govde)"/>
<!-- yaka çizgisi (renk şeridi) -->
<path d="M100 256 C104 218 112 204 128 200 C144 204 152 218 156 256 Z" fill="#60A5FAcc"/>
<!-- baş -->
<circle cx="128" cy="118" r="52" fill="#1e314f"/>
<circle cx="128" cy="118" r="52" fill="none" stroke="#60A5FA8c" stroke-width="2.5"/>
<!-- yüz hatları (minimal) -->
<circle cx="111" cy="112" r="4.5" fill="#60A5FAd9"/>
<circle cx="145" cy="112" r="4.5" fill="#60A5FAd9"/>
<path d="M112 140 Q128 148 144 140" fill="none" stroke="#60A5FA80" stroke-width="3" stroke-linecap="round"/>
<!-- ışık vurgusu -->
<path d="M 82 88 A 48 48 0 0 1 148 74" fill="none" stroke="#60A5FAa6" stroke-width="4" stroke-linecap="round"/>
</svg>
